<?xml version="1.0" encoding="utf-8"?>
<!-- Generator: Adobe Illustrator 13.0.0, SVG Export Plug-In . SVG Version: 6.00 Build 14948)  -->
<!DOCTYPE svg PUBLIC "-//W3C//DTD SVG 1.1//EN" "http://www.w3.org/Graphics/SVG/1.1/DTD/svg11.dtd">
<svg version="1.1" id="Layer_1" xmlns="http://www.w3.org/2000/svg" xmlns:xlink="http://www.w3.org/1999/xlink" x="0px" y="0px"
	 width="328.5px" height="141.544px" viewBox="0 0 328.5 141.544" enable-background="new 0 0 328.5 141.544" xml:space="preserve">
<rect x="241" y="54.044" fill="#FFFFFF" stroke="#000000" width="87" height="87"/>
<path fill="#FFFFFF" stroke="#000000" d="M324,126.044c0,6.627-5.373,12-12,12h-56c-6.627,0-12-5.373-12-12v-56
	c0-6.627,5.373-12,12-12h56c6.627,0,12,5.373,12,12V126.044z"/>
<path fill="#FFFFFF" stroke="#000000" d="M318,120.044c0,6.627-5.373,12-12,12h-45c-6.627,0-12-5.373-12-12v-42
	c0-6.627,5.373-12,12-12h45c6.627,0,12,5.373,12,12V120.044z"/>
<text transform="matrix(1.5257 -0.0421 0.0276 0.9996 267.6631 111.3042)" fill="none" stroke="#000000" font-family="'SegoeUIEmoji'" font-size="39.4797">2</text>
</svg>
