<?xml version="1.0" encoding="utf-8"?>
<!-- Generator: Adobe Illustrator 16.0.0, SVG Export Plug-In . SVG Version: 6.00 Build 0)  -->
<!DOCTYPE svg PUBLIC "-//W3C//DTD SVG 1.1//EN" "http://www.w3.org/Graphics/SVG/1.1/DTD/svg11.dtd">
<svg version="1.1" id="Layer_1" xmlns="http://www.w3.org/2000/svg" xmlns:xlink="http://www.w3.org/1999/xlink" x="0px" y="0px"
	 width="1200px" height="720px" viewBox="0 0 1200 720" enable-background="new 0 0 1200 720" xml:space="preserve">
<g>
	<g>
		<path fill="none" stroke="#010101" stroke-width="10" stroke-miterlimit="10" d="M636.516,395.49l-6.063-1.386l0.022,0.02
			l-13.482,25.434c-0.732,1.395-2.223,2.312-3.9,2.435c-1.689,0.112-3.325-0.6-4.283-1.873l-10.806-14.359
			c-0.577-0.768-1.503-1.264-2.521-1.339c-1.02-0.075-2.018,0.271-2.729,0.937l-2.635,2.49c-0.638,0.608-1.522,0.945-2.438,0.945
			c-0.921,0-1.806-0.337-2.445-0.945l-2.645-2.5c-0.706-0.664-1.707-1.011-2.731-0.927c-1.016,0.084-1.937,0.571-2.519,1.329
			l-10.806,14.369c-0.955,1.273-2.584,1.976-4.273,1.863c-1.686-0.113-3.178-1.039-3.912-2.425l-13.473-25.434l0.016-0.02
			l-6.15,1.386c-25.261,5.748-43.061,26.398-43.061,50.082v31.097c0.015,6.131,5.626,11.102,12.36,11.102h159.265
			c6.731,0,12.186-4.971,12.186-11.092v-31.097C679.494,421.889,661.781,401.247,636.516,395.49z M587.681,478.926
			c-2.867,0-5.185-2.107-5.185-4.71c0-2.602,2.318-4.717,5.185-4.717c2.861,0,5.176,2.115,5.176,4.717
			C592.857,476.818,590.542,478.926,587.681,478.926z M587.681,456.121c-2.867,0-5.185-2.105-5.185-4.708s2.318-4.718,5.185-4.718
			c2.861,0,5.176,2.115,5.176,4.718S590.542,456.121,587.681,456.121z M587.681,433.309c-2.867,0-5.185-2.106-5.185-4.718
			c0-2.602,2.318-4.708,5.185-4.708c2.861,0,5.176,2.106,5.176,4.708C592.857,431.193,590.542,433.309,587.681,433.309z"/>
		<path fill="none" stroke="#010101" stroke-width="10" stroke-miterlimit="10" d="M531.235,325.269
			c-4.684,1.971-8.188,6.527-7.251,16.875c0.991,10.962,7.053,15.903,13.626,17.183c9.317,20.745,27.788,37.866,49.649,37.866
			c21.807,0,40.251-17.046,49.577-37.722c6.926-0.997,13.502-5.872,14.542-17.332c0.782-8.693-1.563-13.305-5.115-15.724
			c7.997-37.404-20.451-44.89-20.451-44.89s-26.563-28.958-73.414-6.333c-9.184,4.439-18.516,13.665-24.689,25.01
			c-0.88,1.609-0.658,3.541,0.559,4.956c1.224,1.414,3.231,2.069,5.165,1.678C528.131,317.385,531.263,324.623,531.235,325.269z
			 M541.858,324.858c35.474-0.15,56.887-13.598,68.847-25.351C623.23,310.868,541.773,326.697,541.858,324.858z"/>
	</g>
</g>
<path fill="#010101" d="M362.207,273.05c-3.889-3.833-9.061-5.944-14.561-5.944s-10.67,2.111-14.561,5.944l-13.776,13.579
	c-0.002,0.001-0.002,0.001-0.002,0.001l-2.785,2.746L170.663,433.137c-0.546,0.539-1.042,1.129-1.477,1.759l-3.479,5.038
	l-2.392,3.466c-0.455,0.659-0.886,1.282-1.275,1.907l-0.025-0.016l-8.947,13.877c-4.014,6.23-4.659,11.882-1.919,16.801
	c2.314,4.151,6.799,6.731,11.705,6.731c3.34,0,6.681-1.118,10.516-3.521c0.046-0.028,0.092-0.058,0.139-0.087l24.308-15.677
	c0.709-0.456,1.369-0.985,1.969-1.576l134.982-133.043c0.005-0.002,0.006-0.004,0.009-0.006l13.654-13.458
	c0.005-0.003,0.007-0.007,0.012-0.012l13.765-13.568C370.237,293.839,370.237,280.963,362.207,273.05z M326.05,320.191
	l-11.672-11.504l13.654-13.457l11.672,11.503L326.05,320.191z M162.853,470.537c-1.495,0-1.389-1.714,0.63-4.846l3.44-5.336
	l5.182,5.106l-5.353,3.452C164.996,470.014,163.68,470.537,162.853,470.537z M191.058,453.24l-8.497,5.479
	c-0.211-0.304-0.449-0.593-0.721-0.862l-7.24-7.134c-0.284-0.279-0.591-0.521-0.909-0.735c2.003-2.904,5.695-8.254,5.695-8.254
	l126.268-124.447l11.67,11.503l0,0L191.058,453.24z M353.483,293.152L353.483,293.152l-5.053,4.982l-11.672-11.504l5.055-4.98v0
	c1.61-1.588,3.722-2.382,5.833-2.382c2.114,0,4.226,0.794,5.835,2.382C356.706,284.826,356.706,289.977,353.483,293.152z"/>
<g>
	<path fill="none" stroke="#010101" stroke-width="10" stroke-miterlimit="10" d="M1090.855,433.522H892.401V266.839
		c0-5.935-4.812-10.747-10.747-10.747s-10.747,4.812-10.747,10.747v166.683h-33.672c-5.936,0-10.747,4.812-10.747,10.747
		s4.812,10.746,10.747,10.746h33.672v27.951c0,5.936,4.812,10.747,10.747,10.747s10.747-4.812,10.747-10.747v-27.951h198.454
		c5.936,0,10.746-4.811,10.746-10.746S1096.791,433.522,1090.855,433.522z"/>
	<path fill="none" stroke="#010101" stroke-width="10" stroke-miterlimit="10" d="M918.909,415.399
		c7.901,0,14.329-6.428,14.329-14.329c0-3.271-1.113-6.278-2.965-8.692l25.923-62.468l26.483,54.602
		c-1.261,2.133-1.997,4.609-1.997,7.261c0,7.901,6.428,14.329,14.328,14.329c7.901,0,14.329-6.428,14.329-14.329
		c0-1.998-0.414-3.902-1.157-5.632l9.973-12.801c0.774,0.13,1.564,0.214,2.375,0.214c0.741,0,1.465-0.075,2.176-0.184l9.28,12.604
		c-0.789,1.774-1.237,3.734-1.237,5.8c0,7.901,6.428,14.329,14.329,14.329c7.899,0,14.329-6.428,14.329-14.329
		c0-2.984-0.92-5.756-2.486-8.053l19.414-38.931c7.412-0.541,13.28-6.729,13.28-14.276c0-7.901-6.428-14.329-14.329-14.329
		c-7.9,0-14.328,6.428-14.328,14.329c0,2.977,0.914,5.746,2.476,8.039l-19.421,38.946c-0.15,0.011-0.303,0.013-0.451,0.027
		l-9.679-13.146c0.62-1.602,0.976-3.336,0.976-5.156c0-7.901-6.428-14.329-14.328-14.329c-7.901,0-14.329,6.428-14.329,14.329
		c0,1.752,0.331,3.424,0.908,4.977l-10.401,13.354c-0.502-0.06-1.012-0.096-1.527-0.103l-27.466-56.625
		c1.711-2.36,2.731-5.251,2.731-8.382c0-7.901-6.428-14.329-14.328-14.329c-7.901,0-14.329,6.427-14.329,14.329
		c0,3.104,1.002,5.973,2.687,8.321l-27.435,66.112c-7.02,0.92-12.462,6.926-12.462,14.193
		C904.58,408.973,911.009,415.399,918.909,415.399z"/>
</g>
</svg>
