<?xml version="1.0" encoding="utf-8"?>
<!-- Generator: Adobe Illustrator 16.0.0, SVG Export Plug-In . SVG Version: 6.00 Build 0)  -->
<!DOCTYPE svg PUBLIC "-//W3C//DTD SVG 1.1//EN" "http://www.w3.org/Graphics/SVG/1.1/DTD/svg11.dtd">
<svg version="1.1" id="Layer_1" xmlns="http://www.w3.org/2000/svg" xmlns:xlink="http://www.w3.org/1999/xlink" x="0px" y="0px"
	 width="612px" height="792px" viewBox="0 0 612 792" enable-background="new 0 0 612 792" xml:space="preserve">
<ellipse fill="none" stroke="#000000" stroke-width="4" stroke-miterlimit="10" cx="136" cy="210" rx="100" ry="81"/>
<ellipse fill="none" stroke="#000000" stroke-width="4" stroke-miterlimit="10" cx="157.235" cy="237.5" rx="48.765" ry="40.5"/>
<text transform="matrix(1.125 0 0 1 220.5908 148.7607)" font-family="'MyriadPro-Regular'" font-size="18">NP</text>
<text transform="matrix(1.4475 0 0 1 78.2109 174.6807)" font-family="'MyriadPro-Regular'" font-size="19.4299">P</text>
<text transform="matrix(0.9455 0 0 1 144 230.6807)" font-family="'MyriadPro-Regular'" font-size="16.875">NPC</text>
<ellipse fill="none" stroke="#000000" stroke-width="4" stroke-miterlimit="10" cx="381.365" cy="210.605" rx="88.867" ry="81.605"/>
<ellipse fill="none" stroke="#000000" stroke-width="4" stroke-miterlimit="10" cx="463.332" cy="210.605" rx="88.867" ry="81.605"/>
<text transform="matrix(1 0 0 1 332 193)" font-family="'MyriadPro-Regular'" font-size="18">P</text>
<text transform="matrix(1 0 0 1 496 193)" font-family="'MyriadPro-Regular'" font-size="18">NP</text>
<text transform="matrix(1 0 0 1 415 222)" font-family="'MyriadPro-Regular'" font-size="18">NPC</text>
<ellipse fill="none" stroke="#000000" stroke-width="4" stroke-miterlimit="10" cx="136" cy="447.969" rx="93" ry="81.5"/>
<ellipse fill="none" stroke="#000000" stroke-width="4" stroke-miterlimit="10" cx="108.469" cy="427.885" rx="40.5" ry="33"/>
<text transform="matrix(1 0 0 1 89 431.8848)" font-family="'MyriadPro-Regular'" font-size="18">NPC</text>
<text transform="matrix(1 0 0 1 166 427.8848)" font-family="'MyriadPro-Regular'" font-size="18">P=NP</text>
<ellipse fill="none" stroke="#000000" stroke-width="4" stroke-miterlimit="10" cx="452.335" cy="460.885" rx="93.1" ry="80.5"/>
<text transform="matrix(1 0 0 1 415 465.8848)" font-family="'MyriadPro-Regular'" font-size="18">P=NP=NPC</text>
<text transform="matrix(1 0 0 1 36 106)" font-family="'MyriadPro-Regular'" font-size="18">(A)</text>
<text transform="matrix(1 0 0 1 314 91)" font-family="'MyriadPro-Regular'" font-size="18">(B)</text>
<text transform="matrix(1 0 0 1 50 332)" font-family="'MyriadPro-Regular'" font-size="18">(C)</text>
<text transform="matrix(1 0 0 1 369 347)" font-family="'MyriadPro-Regular'" font-size="18">(D)</text>
</svg>
