<?xml version="1.0" encoding="utf-8"?>
<!-- Generator: Adobe Illustrator 13.0.0, SVG Export Plug-In . SVG Version: 6.00 Build 14948)  -->
<!DOCTYPE svg PUBLIC "-//W3C//DTD SVG 1.1//EN" "http://www.w3.org/Graphics/SVG/1.1/DTD/svg11.dtd">
<svg version="1.1" id="Forma_1_1_" xmlns="http://www.w3.org/2000/svg" xmlns:xlink="http://www.w3.org/1999/xlink" x="0px" y="0px"
	 width="66px" height="67px" viewBox="0 0 66 67" enable-background="new 0 0 66 67" xml:space="preserve">
<path fill="#267481" stroke="#7FFFFC" d="M59.445-0.005H6.053c-3.482,0-6.306,2.818-6.306,6.294v54.423
	c0,3.476,2.823,6.293,6.306,6.293h53.392c3.481,0,6.307-2.817,6.307-6.293V6.288C65.752,2.813,62.928-0.005,59.445-0.005z
	 M52.863,9.496H12.637c-1.937,0-3.511,1.57-3.511,3.5v41.005c0,1.931,1.573,3.502,3.511,3.502h40.227c1.936,0,3.51-1.571,3.51-3.502
	V12.997C56.373,11.066,54.799,9.496,52.863,9.496z"/>
<g id="XMLID_1_">
	<g>
		<path fill="#FFFFFF" d="M58.86,13v41c0,3.3-2.69,5.98-6,5.98H12.64c-3.31,0-6-2.681-6-5.98V13c0-3.3,2.69-5.98,6-5.98h40.22
			C56.17,7.02,58.86,9.7,58.86,13z"/>
	</g>
	<g>
		<path fill="none" stroke="#3FFFF4" d="M58.86,54c0,3.3-2.69,5.98-6,5.98H12.64c-3.31,0-6-2.681-6-5.98V13c0-3.3,2.69-5.98,6-5.98
			h40.22c3.31,0,6,2.68,6,5.98V54z"/>
	</g>
</g>
<text transform="matrix(1.1768 0 0 1 24.249 42.9727)" fill="#0C0B0B" stroke="#000000" font-family="'PlantagenetCherokee'" font-size="32.2566">4</text>
<rect x="-108.25" y="-44.5" fill="none" width="229.5" height="62.75"/>
</svg>
