<?xml version="1.0" encoding="utf-8"?>
<!-- Generator: Adobe Illustrator 13.0.0, SVG Export Plug-In . SVG Version: 6.00 Build 14948)  -->
<!DOCTYPE svg PUBLIC "-//W3C//DTD SVG 1.1//EN" "http://www.w3.org/Graphics/SVG/1.1/DTD/svg11.dtd">
<svg version="1.1" id="Forma_1_1_" xmlns="http://www.w3.org/2000/svg" xmlns:xlink="http://www.w3.org/1999/xlink" x="0px" y="0px"
	 width="66px" height="67px" viewBox="0 0 66 67" enable-background="new 0 0 66 67" xml:space="preserve">
<g>
	<g>
		<path fill="#FFFFFF" stroke="#050505" d="M59.445-0.005H6.053c-3.482,0-6.306,2.818-6.306,6.294v54.423
			c0,3.476,2.823,6.293,6.306,6.293h53.392c3.481,0,6.307-2.817,6.307-6.293V6.288C65.752,2.813,62.928-0.005,59.445-0.005z
			 M58.859,54.001c0,3.299-2.689,5.983-5.996,5.983H12.636c-3.307,0-5.996-2.685-5.996-5.983V12.997
			c0-3.297,2.689-5.982,5.996-5.982h40.227c3.305,0,5.996,2.685,5.996,5.982V54.001L58.859,54.001z M52.863,9.496H12.637
			c-1.937,0-3.511,1.57-3.511,3.5v41.005c0,1.931,1.573,3.502,3.511,3.502h40.227c1.936,0,3.51-1.571,3.51-3.502V12.997
			C56.373,11.066,54.799,9.496,52.863,9.496z"/>
	</g>
	
		<text transform="matrix(1.1768 0 0 1 13.249 43.7227)" fill="#0C0B0B" stroke="#000000" font-family="'PlantagenetCherokee'" font-size="32.2566">14</text>
</g>
<rect x="-108.25" y="-44.5" fill="none" width="229.5" height="62.75"/>
</svg>
