<?xml version="1.0" encoding="utf-8"?>
<!-- Generator: Adobe Illustrator 16.0.0, SVG Export Plug-In . SVG Version: 6.00 Build 0)  -->
<!DOCTYPE svg PUBLIC "-//W3C//DTD SVG 1.1//EN" "http://www.w3.org/Graphics/SVG/1.1/DTD/svg11.dtd">
<svg version="1.1" id="Layer_1" xmlns="http://www.w3.org/2000/svg" xmlns:xlink="http://www.w3.org/1999/xlink" x="0px" y="0px"
	 width="1200px" height="720px" viewBox="0 0 1200 720" enable-background="new 0 0 1200 720" xml:space="preserve">
<path fill="none" stroke="#000000" stroke-miterlimit="10" d="M195,420.334"/>
<path fill="none" stroke="#000000" stroke-miterlimit="10" d="M236,321.667"/>
<path fill="none" stroke="#000000" stroke-miterlimit="10" d="M314.25,292"/>
<path fill="none" stroke="#FFFFFF" stroke-miterlimit="10" d="M324.5,287"/>
<path fill="none" stroke="#FFFFFF" stroke-miterlimit="10" d="M315.25,292"/>
<path fill="none" stroke="#000000" stroke-miterlimit="10" d="M318.75,286.933"/>
<path fill="none" stroke="#000000" stroke-miterlimit="10" d="M488.667,440.665"/>
<path fill="none" stroke="#000000" stroke-miterlimit="10" d="M554,528"/>
<g>
	<g>
		<g>
			<path fill="none" stroke="#000000" stroke-width="4" stroke-miterlimit="10" d="M199.833,346.003l3.333,21.666l3,9.667
				c0,0,4,5.333,15.667,5s13.333-0.667,18.667-3s7,0,10.667-10c0,0,0.334-2.667-3.333-14s-6.651-13,3.341-16
				c0,0,20.325,1.999,31.992-1.667s25.334-12.667,29.667-27c0,0,5-29,1.667-36.667c0,0-0.333-12-7.333-23s-40.333-19-54-18
				s-38-3-50,11.333c0,0-7,8.667-7.667,16.667s-0.667,16,0,33.667S199.833,346.003,199.833,346.003z"/>
			<path fill="none" stroke="#000000" stroke-width="4" stroke-miterlimit="10" d="M244.167,270.002c3-0.833,4.5-4.5,11.833-4
				s8.333-1.714,14.333,1.977s7.667,8.523,7.333,16.523s-5,14.5-7.667,16.667s-9.187,5.5-14.677,5.167s-16.324-5.833-17.99-13.333
				s1-14,2.167-16.333S244.167,270.002,244.167,270.002z"/>
			<path fill="none" stroke="#000000" stroke-width="4" stroke-miterlimit="10" d="M354.417,302.835l4.25-19.5c0,0,1.75-5,3.5-22.25
				s1-12,0-19.5s-11.75-8.084-15.5-8.667s-17.5,0.167-18.5,1.417s-4.5,1.25-5.75,5s-2.5,19-2.5,19.75s-2.25,13-2.75,21.5
				s-1.75,28.75,0,31c0,0-1.167,17.417,1.333,30.75s3.167,29.001,4.917,36.667s29.417,4.334,35.417,0c0,0,14.666-3.333,16.333-25
				c0,0,7.333-16,0-28c0,0-3-8.001-15,3.666c0,0-3.333,5.001-5.333,2.334S353.877,305.309,354.417,302.835z"/>
			<path fill="none" stroke="#000000" stroke-width="4" stroke-miterlimit="10" d="M391.667,259.835c0,0,19.5-19.5,46.5-20.5
				c0,0,21-4,23.667-3s13.667-2,23.667,23.5c0,0,9.667,17.833,10,29.167c0,0,4.667,27.333,2.667,36c0,0-1.667,26.333-6.667,30
				c0,0-0.333,4.665-8.333,13.999s-19.666,14.367-33.333,13.351c0,0-26.333,0.983-39-7.017c0,0-19-6.334-19.167-13.334
				c0,0-26.167-20.667-4.5-49s48.333-18.666,54-15s20.667,7.667,22.667-3s-15.333-27.667-18-25.667c0,0-11,2.334-14.667,5.667
				S417.5,286.667,415.5,288s-17,10.667-23.333-0.333S384.833,262.669,391.667,259.835z"/>
			<path fill="none" stroke="#000000" stroke-width="4" stroke-miterlimit="10" d="M432.417,327.335c0,0-7.5,1.5-9,4.5
				s-1.75,6.25,0,9.25s10.411,7.5,15.206,8.25s12.294,1.75,14.794-5s-4.25-13.75-13.25-17H432.417z"/>
		</g>
		<path fill="none" stroke="#000000" stroke-width="4" stroke-miterlimit="10" d="M567.833,236.174c0,0,25.333-0.839,32.333,5.161
			c0,0,20.334,11.667,20.668,27.333c0,0,4.666,22,0,27.667c0,0-9.002,14.334-28.667,7c0,0-10.666,0-11.333-3.333
			s-5.667-23.112-16-29.223c0,0-1.333-2.11-7-5.11c0,0-19.667,8.667-19.333,33.333s5.333,28.667,9.667,33.333s16,16,28-14.667
			c0,0,3.666-9.349,32-8.341c0,0,14.148,1.008,14.742,7.008c0.592,6-6.076-27.667,18.258-64s88-15,100,21
			c0,0,11.668,26.318,6.668,35.992s-73.334,5.007-79,4.674c-5.668-0.333-5.668-0.333-5.668-0.333s-7.666,13.229,9,24.614
			c16.668,11.386,27.334,3.947,31,0c3.668-3.947,6-10.947,6-10.947l37.668-3.334c0,0,11.666,13.334-16.668,42.334
			c-28.332,29-87.998,15-105.666-33c0,0-11.334,22.666-16.334,27s-12.332,19.066-45.333,21.033c0,0-38.667,3.968-57-48.699
			c0,0-13.667-44.333,9.333-79.667c0,0,25.333-21.988,42-16.828H567.833z"/>
		<path fill="none" stroke="#000000" stroke-width="4" stroke-miterlimit="10" d="M670.834,278.002c0,0,8-8,14.666-9s22,3,24.666,9
			c2.668,6-4.998,16-19.666,13C675.834,288.002,660.072,285.764,670.834,278.002z"/>
	</g>
	<path fill="none" stroke="#000000" stroke-width="4" stroke-miterlimit="10" d="M754.166,302.335c0,0,0.041-0.466,0.129-1.31
		c0.799-7.545,5.48-45.344,19.871-51.19c0,0,24.5-11,31,0c0,0,13,14,15.5,10.5s6.5-19.5,6.5-19.5s40.334-23.5,61.334,19.5
		c0,0,10.666,25,9.334,29c-1.334,4,5.666-47.817,52.666-54.909s71.002,50.575,70.668,59.242s0.002,16.333,0.002,16.333
		s-6.004,8.334-54.336,5.334c0,0-24.334-1-28-2s-13.666,24.334,26.666,30c0,0,13-6.666,17-16c0,0,34.334-3.334,35.668-3.334
		c1.332,0,11.672,1.001,3.002,16.001s-23.67,46.536-59.336,41.435c0,0-47.666,1.232-64.334-50.435c0,0-5.332,20.334-11,26.667
		c0,0-21.332,24.666-35.332-14.334c0,0,1.666-33.666,4.666-43.666s-6.668-48.668-17,7.666c0,0-3.334,23.334-11,19.667
		c0,0-3,6.667-23.334-25.333c0,0-7.998-13.667-11.332-14.667s-6,19.001,16.332,49.667c0,0,15,45.535-26,44.768
		c0,0-24.07-13.78-29.334-44.77s0.041-34.798,0.041-34.798"/>
	<path fill="none" stroke="#000000" stroke-width="4" stroke-miterlimit="10" d="M944.166,275.835c0,0,16.5-10.473,23.5-6.986
		s16,2.986,18,14.486s-28.5,9.432-34.5,8.216c0,0-11.166-3.216-10-8.216C942.334,278.335,942.666,278.001,944.166,275.835z"/>
</g>
</svg>
