<svg width="640" height="480" xmlns="http://www.w3.org/2000/svg" xmlns:xlink="http://www.w3.org/1999/xlink">
 <!-- Created with SVG-edit - http://svg-edit.googlecode.com/ -->
 <defs>
  <svg id="svg_1" width="635" height="1000">
   <path d="m600,220.5l35,0l0,671.25l-502.5,0c-73.75,0 -132.5,-51.25 -132.5,-127.5l0,-581.25c0,-41.25 33.75,-75 75,-75l465,0l0,576.25l-407.5,0c-51.25,0 -87.5,27.5 -87.5,77.5l0,2.5c0,50 36.25,82.5 87.5,82.5l467.5,0l0,-626.25zm-60,561.25l-402.5,0c-11.25,0 -21.25,-6.25 -21.25,-18.75c0,-10 10,-16.25 21.25,-16.25l402.5,0l0,35z"/>
  </svg>
 </defs>
 <g>
  <title>Layer 1</title>
  <use fill="#ffffff" x="1087.500024" y="400.000009" transform="matrix(0.1599999964237213,0,0,0.1599999964237213,0,0) " id="svg_2" xlink:href="#svg_1"/>
 </g>
</svg>